<?xml version="1.0" standalone="no"?>
<!DOCTYPE svg PUBLIC "-//W3C//DTD SVG 20010904//EN"
 "http://www.w3.org/TR/2001/REC-SVG-20010904/DTD/svg10.dtd">
<svg version="1.0" xmlns="http://www.w3.org/2000/svg"
 width="192.000000pt" height="196.000000pt" viewBox="0 0 192.000000 196.000000"
 preserveAspectRatio="xMidYMid meet">
<metadata>
Created by potrace 1.16, written by Peter Selinger 2001-2019
</metadata>
<g transform="translate(0.000000,196.000000) scale(0.100000,-0.100000)"
fill="#000000" stroke="none">
<path d="M862 1829 c-172 -29 -320 -107 -452 -239 -165 -165 -250 -365 -250
-590 0 -225 85 -425 250 -590 105 -105 194 -162 320 -204 234 -78 472 -55 690
67 102 57 250 205 307 307 149 267 149 573 0 840 -57 102 -205 250 -307 307
-171 96 -373 133 -558 102z m328 -52 c209 -57 368 -171 480 -344 89 -136 125
-259 125 -433 0 -225 -76 -411 -230 -565 -154 -154 -340 -230 -565 -230 -174
0 -297 36 -433 125 -217 141 -347 365 -364 626 -26 400 254 753 662 833 67 13
257 6 325 -12z"/>
<path d="M888 1593 c-10 -2 -18 -11 -18 -18 0 -11 25 -13 118 -13 199 0 373
-52 447 -134 40 -44 43 -65 15 -96 -52 -55 -163 -83 -354 -87 -76 -2 -142 -7
-145 -12 -4 -4 -5 -33 -3 -64 l4 -55 109 -11 c129 -13 221 -50 227 -91 5 -34
-31 -68 -92 -88 -59 -19 -74 -30 -61 -43 19 -18 131 26 164 64 41 47 40 79 -3
119 -44 42 -121 67 -228 73 l-88 6 0 33 0 34 123 0 c246 1 397 62 397 162 0
118 -246 229 -500 227 -52 -1 -103 -3 -112 -6z"/>
<path d="M724 1540 c-64 -36 -117 -96 -154 -175 -148 -316 -51 -922 155 -961
52 -9 86 3 131 50 30 31 47 63 67 123 21 64 57 236 57 275 0 4 19 8 43 10 29
2 42 8 42 18 0 11 -13 15 -50 16 -59 1 -75 -9 -75 -46 0 -50 -30 -204 -51
-265 -90 -256 -269 -166 -335 170 -26 132 -24 363 5 470 41 153 100 241 195
291 55 28 73 54 39 54 -10 0 -41 -13 -69 -30z"/>
</g>
</svg>
